# xmcd CD database file
#
# Track frame offsets:
#	150
#	18804
#	35858
#	64058
#	86298
#	115450
#	137794
#	157566
#	178416
#
# Disc length: 2822 seconds
#
# Revision: 0
# Processed by: cddbd v1.5.1PL2 Copyright (c) Steve Scherf et al.
# Submitted via: CDex 1.70beta1
#
DISCID=700b0409
DTITLE=Old Street Musical Union - Old Street Musical Union
DYEAR=2006
DGENRE=Blues
TTITLE0=Poor You
TTITLE1=Trisha
TTITLE2=Watching the Mad
TTITLE3=Sleepless Nights
TTITLE4=When I Close my Eyes
TTITLE5=How's Your Mother?
TTITLE6=Dark Clouds
TTITLE7=Hush Hush
TTITLE8=Janelle
EXTD=YEAR: 2006
EXTT0=
EXTT1=
EXTT2=
EXTT3=
EXTT4=
EXTT5=
EXTT6=
EXTT7=
EXTT8=
PLAYORDER=
